<svg width="213" height="213" viewBox="0 0 213 213" fill="none" xmlns="http://www.w3.org/2000/svg">
<path d="M189.877 150.104C176.459 138.761 168.764 122.182 168.764 104.618V79.875C168.764 48.6446 145.565 22.7915 115.514 18.4607V8.87446C115.514 3.96677 111.538 0 106.638 0C101.74 0 97.7637 3.96677 97.7637 8.87446V18.4607C67.7033 22.7915 44.5137 48.6446 44.5137 79.875V104.618C44.5137 122.182 36.819 138.761 23.3196 150.174C19.868 153.13 17.8887 157.425 17.8887 161.968C17.8887 170.534 24.8553 177.501 33.4194 177.501H179.857C188.423 177.501 195.389 170.534 195.389 161.968C195.389 157.425 193.41 153.13 189.877 150.104Z" fill="#A9B1FA"/>
<path d="M106.638 213C122.712 213 136.157 201.542 139.245 186.375H74.0313C77.1205 201.542 90.5663 213 106.638 213Z" fill="#A9B1FA"/>
</svg>
