<svg width="176" height="176" viewBox="0 0 176 176" fill="none" xmlns="http://www.w3.org/2000/svg">
<g clip-path="url(#clip0)">
<path d="M139.335 0H37.2177C28.901 0 21.5986 6.84179 21.5986 14.9402V166.003C21.5986 168.713 22.3531 170.973 23.569 172.718C25.0232 174.805 27.3647 176.001 29.8755 176C32.2493 176 34.7767 174.943 37.1107 172.95L82.7979 134.159C84.2089 132.954 86.2358 132.263 88.3432 132.263C90.4498 132.263 92.4725 132.954 93.8877 134.162L139.422 172.944C141.764 174.943 144.118 176.001 146.487 176.001C150.495 176.001 154.401 172.91 154.401 166.003V14.9402C154.401 6.84179 147.652 0 139.335 0Z" fill="#A9B1FA"/>
</g>
<defs>
<clipPath id="clip0">
<rect width="176" height="176" fill="white"/>
</clipPath>
</defs>
</svg>
