<svg width="174" height="174" viewBox="0 0 174 174" fill="none" xmlns="http://www.w3.org/2000/svg">
<path d="M121.791 0H52.2094C23.4346 0 0.0233154 23.4113 0.0233154 52.1861V92.7753C0.0233154 120.579 21.8777 143.373 49.3102 144.883V169.074C49.3102 171.791 51.5252 174 54.2476 174C55.5493 174 56.7815 173.484 57.7121 172.553L63.1511 167.114C77.4327 152.83 96.4255 144.961 116.627 144.961H121.791C150.566 144.961 173.977 121.55 173.977 92.7753V52.1861C173.977 23.4113 150.566 0 121.791 0ZM49.3102 84.0776C42.9145 84.0776 37.7133 78.8764 37.7133 72.4807C37.7133 66.085 42.9145 60.8838 49.3102 60.8838C55.7059 60.8838 60.9071 66.085 60.9071 72.4807C60.9071 78.8764 55.703 84.0776 49.3102 84.0776ZM87.0001 84.0776C80.6044 84.0776 75.4032 78.8764 75.4032 72.4807C75.4032 66.085 80.6044 60.8838 87.0001 60.8838C93.3958 60.8838 98.597 66.085 98.597 72.4807C98.597 78.8764 93.3929 84.0776 87.0001 84.0776ZM124.69 84.0776C118.294 84.0776 113.093 78.8764 113.093 72.4807C113.093 66.085 118.294 60.8838 124.69 60.8838C131.086 60.8838 136.287 66.085 136.287 72.4807C136.287 78.8764 131.083 84.0776 124.69 84.0776Z" fill="#A9B1FA"/>
</svg>
