<svg width="246" height="246" viewBox="0 0 246 246" fill="none" xmlns="http://www.w3.org/2000/svg">
<path d="M157.825 155.037L128.997 111.795C126.323 107.783 119.678 107.783 117.004 111.795L88.1758 155.037C86.7046 157.248 86.5643 160.091 87.8168 162.435C89.0694 164.779 91.5117 166.243 94.172 166.243H101.379V216.692C101.379 220.675 104.603 223.899 108.586 223.899H137.414C141.398 223.899 144.621 220.675 144.621 216.692V166.243H151.828C154.489 166.243 156.931 164.779 158.184 162.435C159.437 160.091 159.296 157.248 157.825 155.037Z" fill="#A9B1FA"/>
<path d="M209.223 84.2926C208.589 75.6797 205.093 67.6448 198.935 61.4867C189.621 52.1732 175.601 49.388 163.285 52.8262C151.442 33.7833 131.069 22.1016 108.586 22.1016C74.789 22.1016 46.9534 48.0792 44.0466 81.7217C18.8286 88.0912 0 111.056 0 137.414C0 169.206 26.3456 195.071 58.1368 195.071H86.965V179.425C81.9537 177.658 77.6958 174.076 75.1056 169.227C71.3401 162.196 71.7553 153.694 76.1756 147.05L105.011 103.8C108.945 97.8952 115.674 94.3763 123 94.3763C130.327 94.3763 137.055 97.8952 140.99 103.8L169.818 147.042C174.245 153.694 174.66 162.196 170.894 169.227C168.304 174.076 164.046 177.658 159.035 179.425V195.071H187.863C219.654 195.071 246 169.206 246 137.414C246 113.629 231.08 92.9973 209.223 84.2926Z" fill="#A9B1FA"/>
</svg>
