<svg width="396" height="396" viewBox="0 0 396 396" fill="none" xmlns="http://www.w3.org/2000/svg">
<g filter="url(#filter0_d)">
<circle cx="222" cy="174" r="166" fill="white"/>
</g>
<mask id="path-2-inside-1" fill="white">
<path d="M304.585 257.585C288.152 274.018 267.216 285.209 244.423 289.742C221.63 294.276 198.005 291.949 176.535 283.056C155.064 274.163 136.713 259.102 123.802 239.78C110.891 220.457 104 197.739 104 174.5C104 151.261 110.891 128.543 123.802 109.221C136.713 89.8977 155.064 74.8375 176.535 65.9442C198.005 57.0509 221.63 54.724 244.423 59.2577C267.216 63.7915 288.152 74.9823 304.585 91.4149L254.058 141.942C247.618 135.503 239.414 131.118 230.483 129.341C221.551 127.565 212.293 128.476 203.88 131.961C195.467 135.446 188.276 141.348 183.216 148.92C178.157 156.491 175.457 165.393 175.457 174.5C175.457 183.607 178.157 192.509 183.216 200.08C188.276 207.652 195.467 213.554 203.88 217.039C212.293 220.524 221.551 221.435 230.483 219.659C239.414 217.882 247.618 213.497 254.058 207.058L304.585 257.585Z"/>
</mask>
<path d="M304.585 257.585C288.152 274.018 267.216 285.209 244.423 289.742C221.63 294.276 198.005 291.949 176.535 283.056C155.064 274.163 136.713 259.102 123.802 239.78C110.891 220.457 104 197.739 104 174.5C104 151.261 110.891 128.543 123.802 109.221C136.713 89.8977 155.064 74.8375 176.535 65.9442C198.005 57.0509 221.63 54.724 244.423 59.2577C267.216 63.7915 288.152 74.9823 304.585 91.4149L254.058 141.942C247.618 135.503 239.414 131.118 230.483 129.341C221.551 127.565 212.293 128.476 203.88 131.961C195.467 135.446 188.276 141.348 183.216 148.92C178.157 156.491 175.457 165.393 175.457 174.5C175.457 183.607 178.157 192.509 183.216 200.08C188.276 207.652 195.467 213.554 203.88 217.039C212.293 220.524 221.551 221.435 230.483 219.659C239.414 217.882 247.618 213.497 254.058 207.058L304.585 257.585Z" stroke="#A866EE" stroke-width="92" mask="url(#path-2-inside-1)"/>
<circle cx="303" cy="174" r="36" fill="#A866EE"/>
<defs>
<filter id="filter0_d" x="0" y="0" width="396" height="396" filterUnits="userSpaceOnUse" color-interpolation-filters="sRGB">
<feFlood flood-opacity="0" result="BackgroundImageFix"/>
<feColorMatrix in="SourceAlpha" type="matrix" values="0 0 0 0 0 0 0 0 0 0 0 0 0 0 0 0 0 0 127 0" result="hardAlpha"/>
<feOffset dx="-24" dy="24"/>
<feGaussianBlur stdDeviation="16"/>
<feComposite in2="hardAlpha" operator="out"/>
<feColorMatrix type="matrix" values="0 0 0 0 0.0677084 0 0 0 0 0.123438 0 0 0 0 0.625 0 0 0 0.25 0"/>
<feBlend mode="normal" in2="BackgroundImageFix" result="effect1_dropShadow"/>
<feBlend mode="normal" in="SourceGraphic" in2="effect1_dropShadow" result="shape"/>
</filter>
</defs>
</svg>
