<svg width="248" height="248" viewBox="0 0 248 248" fill="none" xmlns="http://www.w3.org/2000/svg">
<g clip-path="url(#clip0)">
<path d="M241.313 107.868C241.307 107.862 241.302 107.857 241.296 107.851L140.132 6.69043C135.82 2.37646 130.087 0 123.988 0C117.89 0 112.157 2.37457 107.843 6.68854L6.73179 107.798C6.69773 107.832 6.66368 107.868 6.62962 107.902C-2.22536 116.808 -2.21023 131.258 6.67314 140.141C10.7317 144.202 16.092 146.554 21.8231 146.8C22.0558 146.822 22.2904 146.834 22.527 146.834H26.559V221.282C26.559 236.014 38.5454 248 53.281 248H92.8597C96.871 248 100.125 244.747 100.125 240.734V182.367C100.125 175.645 105.593 170.176 112.316 170.176H135.661C142.383 170.176 147.851 175.645 147.851 182.367V240.734C147.851 244.747 151.104 248 155.117 248H194.696C209.431 248 221.418 236.014 221.418 221.282V146.834H225.157C231.253 146.834 236.986 144.459 241.302 140.145C250.195 131.247 250.198 116.772 241.313 107.868Z" fill="#A866EE"/>
</g>
<defs>
<clipPath id="clip0">
<rect width="248" height="248" fill="white"/>
</clipPath>
</defs>
</svg>
