<svg width="184" height="184" viewBox="0 0 184 184" fill="none" xmlns="http://www.w3.org/2000/svg">
<path d="M178.487 112.163L161.574 98.9385C161.789 96.899 161.973 94.5149 161.973 91.9925C161.973 89.47 161.796 87.0859 161.574 85.0465L178.502 71.8139C181.646 69.3299 182.504 64.9215 180.503 61.2494L162.916 30.82C161.037 27.3855 156.92 25.622 152.742 27.163L132.786 35.1745C128.96 32.4145 124.95 30.084 120.803 28.221L117.767 7.05345C117.268 3.036 113.772 0 109.64 0H74.3737C70.2413 0 66.7532 3.036 66.2623 6.992L63.2187 28.2365C59.2013 30.0459 55.2532 32.3459 51.2587 35.19L31.2487 27.1555C27.4994 25.7065 23.0144 27.3315 21.1514 30.751L3.54128 61.2185C1.46373 64.7299 2.32228 69.2915 5.53473 71.8369L22.4473 85.0619C22.1788 87.6455 22.0487 89.8919 22.0487 92.0004C22.0487 94.1088 22.1792 96.3549 22.4473 98.9464L5.51928 112.179C2.37582 114.67 1.52482 119.079 3.52582 122.743L21.1133 153.172C22.9917 156.599 27.0703 158.378 31.2868 156.829L51.2433 148.818C55.0613 151.57 59.0708 153.901 63.2187 155.771L66.2547 176.931C66.7528 180.964 70.2413 184 74.3813 184H109.648C113.78 184 117.276 180.964 117.767 177.008L120.81 155.771C124.828 153.954 128.768 151.662 132.77 148.81L152.78 156.845C153.746 157.22 154.751 157.412 155.786 157.412C158.76 157.412 161.497 155.787 162.877 153.257L180.541 122.667C182.504 119.079 181.645 114.67 178.487 112.163ZM92.0068 122.667C75.0943 122.667 61.3403 108.913 61.3403 92C61.3403 75.0875 75.0943 61.3335 92.0068 61.3335C108.919 61.3335 122.673 75.0875 122.673 92C122.673 108.913 108.919 122.667 92.0068 122.667Z" fill="#A9B1FA"/>
</svg>
