<svg width="228" height="228" viewBox="0 0 228 228" fill="none" xmlns="http://www.w3.org/2000/svg">
<g clip-path="url(#clip0)">
<path d="M112.375 109.828C127.464 109.828 140.529 104.417 151.204 93.7397C161.88 83.0644 167.291 70.0025 167.291 54.9124C167.291 39.8275 161.88 26.7639 151.203 16.0851C140.526 5.41157 127.462 0 112.375 0C97.2851 0 84.2232 5.41157 73.5479 16.0869C62.8726 26.7621 57.4592 39.8257 57.4592 54.9124C57.4592 70.0025 62.8726 83.0661 73.5496 93.7414C84.2267 104.415 97.2903 109.828 112.375 109.828V109.828Z" fill="#A9B1FA"/>
<path d="M208.464 175.32C208.156 170.878 207.533 166.031 206.616 160.914C205.691 155.758 204.499 150.884 203.073 146.429C201.6 141.825 199.596 137.277 197.119 132.92C194.548 128.397 191.528 124.459 188.139 121.218C184.596 117.828 180.258 115.102 175.241 113.114C170.242 111.136 164.701 110.134 158.775 110.134C156.447 110.134 154.196 111.089 149.849 113.92C147.174 115.664 144.045 117.682 140.552 119.914C137.565 121.817 133.519 123.6 128.521 125.214C123.646 126.792 118.695 127.592 113.809 127.592C108.922 127.592 103.974 126.792 99.0925 125.214C94.1001 123.602 90.054 121.819 87.0708 119.916C83.6109 117.705 80.4798 115.687 77.7644 113.918C73.4226 111.088 71.17 110.133 68.8425 110.133C62.9143 110.133 57.3757 111.136 52.3781 113.116C47.3649 115.101 43.0248 117.826 39.478 121.22C36.0912 124.463 33.0697 128.399 30.5022 132.92C28.0269 137.277 26.0229 141.823 24.5479 146.431C23.1232 150.886 21.9316 155.758 21.0062 160.914C20.0895 166.024 19.4668 170.872 19.1589 175.325C18.8562 179.688 18.7031 184.216 18.7031 188.789C18.7031 200.691 22.4865 210.326 29.9473 217.432C37.3158 224.444 47.0657 228.001 58.9221 228.001H168.706C180.562 228.001 190.308 224.445 197.679 217.432C205.141 210.331 208.925 200.694 208.925 188.787C208.923 184.193 208.768 179.662 208.464 175.32V175.32Z" fill="#A9B1FA"/>
</g>
<defs>
<clipPath id="clip0">
<rect width="228" height="228" fill="white"/>
</clipPath>
</defs>
</svg>
